<svg xmlns="http://www.w3.org/2000/svg" width="30" height="29" viewBox="0 0 30 29" fill="none">
    <g>
        <path d="M21.4154 3.10892C20.0547 3.12935 18.7237 3.49608 17.5569 4.17207C16.39 4.84805 15.4285 5.80936 14.7695 6.95892C14.1105 5.80936 13.1491 4.84805 11.9822 4.17207C10.8153 3.49608 9.48433 3.12935 8.12369 3.10892C5.95466 3.19991 3.91108 4.11605 2.43943 5.65719C0.967768 7.19833 0.187656 9.2392 0.269522 11.3339C0.269522 16.6388 6.0526 22.4324 10.9029 26.3606C11.9858 27.2392 13.355 27.7209 14.7695 27.7209C16.1841 27.7209 17.5533 27.2392 18.6362 26.3606C23.4864 22.4324 29.2695 16.6388 29.2695 11.3339C29.3514 9.2392 28.5713 7.19833 27.0996 5.65719C25.628 4.11605 23.5844 3.19991 21.4154 3.10892ZM17.0835 24.5756C16.4358 25.1022 15.6163 25.391 14.7695 25.391C13.9228 25.391 13.1032 25.1022 12.4556 24.5756C6.24715 19.5461 2.68619 14.7208 2.68619 11.3339C2.60359 9.85775 3.12888 8.40994 4.1475 7.30623C5.16612 6.20253 6.59543 5.53249 8.12369 5.44225C9.65195 5.53249 11.0813 6.20253 12.0999 7.30623C13.1185 8.40994 13.6438 9.85775 13.5612 11.3339C13.5612 11.6433 13.6885 11.9401 13.9151 12.1589C14.1417 12.3777 14.449 12.5006 14.7695 12.5006C15.09 12.5006 15.3973 12.3777 15.6239 12.1589C15.8505 11.9401 15.9779 11.6433 15.9779 11.3339C15.8953 9.85775 16.4205 8.40994 17.4392 7.30623C18.4578 6.20253 19.8871 5.53249 21.4154 5.44225C22.9436 5.53249 24.3729 6.20253 25.3915 7.30623C26.4102 8.40994 26.9355 9.85775 26.8529 11.3339C26.8529 14.7208 23.2919 19.5461 17.0835 24.5709V24.5756Z" fill="#031412"/>
    </g>
    <defs>
        <clipPath id="clip0_70_770">
            <rect width="29" height="28" fill="white" transform="translate(0.269531 0.872406)"/>
        </clipPath>
     </defs>
</svg>